<svg width="24" height="21" viewBox="0 0 24 21" fill="currentColor" xmlns="http://www.w3.org/2000/svg">
<path fill-rule="evenodd" clip-rule="evenodd" d="M10.5282 1.28306C10.9775 1.0301 11.4844 0.897217 12 0.897217C12.5156 0.897217 13.0225 1.0301 13.4718 1.28306C13.9211 1.53601 14.2976 1.90049 14.565 2.34133L14.5679 2.34608L23.0379 16.4861L23.046 16.4999C23.308 16.9535 23.4466 17.4678 23.448 17.9917C23.4495 18.5155 23.3138 19.0306 23.0544 19.4857C22.795 19.9408 22.4209 20.32 21.9694 20.5857C21.518 20.8513 21.0048 20.9941 20.481 20.9999L20.47 21L3.51903 21C2.99522 20.9942 2.48206 20.8513 2.03059 20.5857C1.57912 20.32 1.20507 19.9408 0.94567 19.4857C0.686267 19.0306 0.550547 18.5155 0.552014 17.9917C0.55348 17.4678 0.692083 16.9535 0.95403 16.4999L0.962153 16.4861L9.43215 2.34609L10.29 2.85995L9.43502 2.34133C9.70243 1.90049 10.0789 1.53601 10.5282 1.28306ZM11.1462 3.3766L2.68271 17.5058C2.59753 17.6556 2.55249 17.8249 2.55201 17.9973C2.55152 18.1719 2.59676 18.3436 2.68322 18.4953C2.76969 18.647 2.89438 18.7734 3.04487 18.8619C3.19404 18.9497 3.36342 18.9973 3.53642 19H20.4636C20.6366 18.9973 20.806 18.9497 20.9552 18.8619C21.1057 18.7734 21.2303 18.647 21.3168 18.4953C21.4033 18.3436 21.4485 18.1719 21.448 17.9973C21.4476 17.8249 21.4025 17.6556 21.3174 17.5058L12.855 3.37859L12.8538 3.3766C12.7648 3.23054 12.6397 3.10977 12.4906 3.02583C12.3409 2.94151 12.1719 2.89722 12 2.89722C11.8282 2.89722 11.6592 2.94151 11.5094 3.02583C11.3603 3.10977 11.2353 3.23054 11.1462 3.3766ZM12 6.99997C12.5523 6.99997 13 7.44768 13 7.99997V12C13 12.5523 12.5523 13 12 13C11.4477 13 11 12.5523 11 12V7.99997C11 7.44768 11.4477 6.99997 12 6.99997ZM12 15C11.4477 15 11 15.4477 11 16C11 16.5523 11.4477 17 12 17H12.01C12.5623 17 13.01 16.5523 13.01 16C13.01 15.4477 12.5623 15 12.01 15H12Z" />
</svg>
