<svg width="23" height="22" viewBox="0 0 23 22" fill="currentColor" xmlns="http://www.w3.org/2000/svg">
<path fill-rule="evenodd" clip-rule="evenodd" d="M6 1C6 0.447715 5.55228 0 5 0C4.44772 0 4 0.447715 4 1V4C4 4.55228 4.44772 5 5 5C5.55228 5 6 4.55228 6 4V1ZM0 8C0 7.44772 0.447715 7 1 7H17H18C19.3261 7 20.5979 7.52678 21.5355 8.46447C22.4732 9.40215 23 10.6739 23 12C23 13.3261 22.4732 14.5979 21.5355 15.5355C20.5979 16.4732 19.3261 17 18 17C18 18.3261 17.4732 19.5979 16.5355 20.5355C15.5979 21.4732 14.3261 22 13 22H5C3.67392 22 2.40215 21.4732 1.46447 20.5355C0.526784 19.5979 0 18.3261 0 17V8ZM18 15V9C18.7956 9 19.5587 9.31607 20.1213 9.87868C20.6839 10.4413 21 11.2044 21 12C21 12.7956 20.6839 13.5587 20.1213 14.1213C19.5587 14.6839 18.7956 15 18 15ZM16 9V16V17C16 17.7956 15.6839 18.5587 15.1213 19.1213C14.5587 19.6839 13.7956 20 13 20H5C4.20435 20 3.44129 19.6839 2.87868 19.1213C2.31607 18.5587 2 17.7957 2 17V9H16ZM9 0C9.55229 0 10 0.447715 10 1V4C10 4.55228 9.55229 5 9 5C8.44771 5 8 4.55228 8 4V1C8 0.447715 8.44771 0 9 0ZM14 1C14 0.447715 13.5523 0 13 0C12.4477 0 12 0.447715 12 1V4C12 4.55228 12.4477 5 13 5C13.5523 5 14 4.55228 14 4V1Z" />
</svg>
