<svg width="22" height="22" viewBox="0 0 22 22" fill="currentColor" xmlns="http://www.w3.org/2000/svg">
<path fill-rule="evenodd" clip-rule="evenodd" d="M6.5 2C5.67157 2 5 2.67157 5 3.5C5 4.32843 5.67157 5 6.5 5H9.65402C9.53195 4.68061 9.37741 4.32942 9.18628 3.98192C8.55732 2.83834 7.6939 2 6.5 2ZM3 3.5C3 4.0368 3.12085 4.54537 3.33682 5H1C0.447715 5 0 5.44772 0 6V11C0 11.5523 0.447715 12 1 12H2V21C2 21.5523 2.44772 22 3 22H11H19C19.5523 22 20 21.5523 20 21V12H21C21.5523 12 22 11.5523 22 11V6C22 5.44772 21.5523 5 21 5H18.6632C18.8792 4.54537 19 4.0368 19 3.5C19 1.567 17.433 0 15.5 0C13.1939 0 11.8073 1.66166 11.0613 3.01808C11.0405 3.0559 11.0201 3.09369 11 3.13142C10.9799 3.09369 10.9595 3.0559 10.9387 3.01808C10.1927 1.66166 8.8061 0 6.5 0C4.567 0 3 1.567 3 3.5ZM12.346 5H15.5C16.3284 5 17 4.32843 17 3.5C17 2.67157 16.3284 2 15.5 2C14.3061 2 13.4427 2.83834 12.8137 3.98192C12.6226 4.32942 12.4681 4.68061 12.346 5ZM12 7V10H19H20V7H15.5H12ZM6.5 7H10V10H3H2V7H6.5ZM12 20H18V12H12V20ZM10 12V20H4V12H10Z" />
</svg>
