<svg width="22" height="22" viewBox="0 0 22 22" fill="currentColor" xmlns="http://www.w3.org/2000/svg">
<path fill-rule="evenodd" clip-rule="evenodd" d="M12 1C12 0.447715 11.5523 0 11 0C10.4477 0 10 0.447715 10 1V5C10 5.55228 10.4477 6 11 6C11.5523 6 12 5.55228 12 5V1ZM12 17C12 16.4477 11.5523 16 11 16C10.4477 16 10 16.4477 10 17V21C10 21.5523 10.4477 22 11 22C11.5523 22 12 21.5523 12 21V17ZM3.22289 3.22289C3.61341 2.83237 4.24658 2.83237 4.6371 3.22289L7.4671 6.05289C7.85762 6.44342 7.85762 7.07658 7.4671 7.46711C7.07658 7.85763 6.44341 7.85763 6.05289 7.46711L3.22289 4.63711C2.83236 4.24658 2.83236 3.61342 3.22289 3.22289ZM15.9471 14.5329C15.5566 14.1424 14.9234 14.1424 14.5329 14.5329C14.1424 14.9234 14.1424 15.5566 14.5329 15.9471L17.3629 18.7771C17.7534 19.1676 18.3866 19.1676 18.7771 18.7771C19.1676 18.3866 19.1676 17.7534 18.7771 17.3629L15.9471 14.5329ZM0 11C0 10.4477 0.447715 10 1 10H5C5.55228 10 6 10.4477 6 11C6 11.5523 5.55228 12 5 12H1C0.447715 12 0 11.5523 0 11ZM17 10C16.4477 10 16 10.4477 16 11C16 11.5523 16.4477 12 17 12H21C21.5523 12 22 11.5523 22 11C22 10.4477 21.5523 10 21 10H17ZM7.4671 14.5329C7.85762 14.9234 7.85762 15.5566 7.4671 15.9471L4.6371 18.7771C4.24657 19.1676 3.61341 19.1676 3.22289 18.7771C2.83236 18.3866 2.83236 17.7534 3.22289 17.3629L6.05289 14.5329C6.44341 14.1424 7.07658 14.1424 7.4671 14.5329ZM18.7771 4.63711C19.1676 4.24658 19.1676 3.61342 18.7771 3.22289C18.3866 2.83237 17.7534 2.83237 17.3629 3.22289L14.5329 6.05289C14.1424 6.44342 14.1424 7.07658 14.5329 7.46711C14.9234 7.85763 15.5566 7.85763 15.9471 7.46711L18.7771 4.63711Z" />
</svg>
