<svg width="22" height="18" viewBox="0 0 22 18" fill="currentColor" xmlns="http://www.w3.org/2000/svg">
<path fill-rule="evenodd" clip-rule="evenodd" d="M2.10655 2.55395C2.27193 2.22692 2.61201 2 2.99997 2H19C19.3879 2 19.728 2.22692 19.8934 2.55394L11 8.77934L2.10655 2.55395ZM2.21022e-05 2.98212C-0.000150726 2.99231 -0.000168048 3.00249 -3.05196e-05 3.01267V15C-3.05196e-05 16.6523 1.34768 18 2.99997 18H19C20.6523 18 22 16.6523 22 15V3.01177M20 4.92065V15C20 15.5477 19.5477 16 19 16H2.99997C2.45225 16 1.99997 15.5477 1.99997 15V4.92065L10.4265 10.8192C10.7708 11.0603 11.2291 11.0603 11.5734 10.8192L20 4.92065ZM21.9999 2.98322C21.9908 1.3386 20.6467 0 19 0H2.99997C1.35365 0 0.00970212 1.338 2.21022e-05 2.98212" />
</svg>
