<svg width="24" height="23" viewBox="0 0 24 23" fill="currentColor" xmlns="http://www.w3.org/2000/svg">
<path fill-rule="evenodd" clip-rule="evenodd" d="M7.85669 0.0288086C7.66982 0.0288086 7.49492 0.0800649 7.34529 0.169285L0.360551 4.16057C0.0489755 4.33861 -0.143311 4.66995 -0.143311 5.02881V21.0288C-0.143311 21.3853 0.0464479 21.7148 0.354763 21.8937C0.663077 22.0726 1.04333 22.0739 1.35283 21.8971L7.88816 18.1626L15.3914 21.9142C15.5213 21.9826 15.6679 22.0232 15.8236 22.0283C15.8346 22.0286 15.8457 22.0288 15.8567 22.0288C16.0436 22.0288 16.2185 21.9776 16.3681 21.8883L23.3528 17.8971C23.6644 17.719 23.8567 17.3877 23.8567 17.0288V1.02881C23.8567 0.672339 23.6669 0.342821 23.3586 0.163899C23.0503 -0.0150231 22.6701 -0.016293 22.3605 0.160566L15.8252 3.89504L8.32191 0.143382C8.18294 0.0702172 8.02465 0.0288086 7.85669 0.0288086ZM16.8567 19.3056L21.8567 16.4485V2.75199L16.8567 5.60913V19.3056ZM14.8567 5.64684L8.85669 2.64684V16.4108L14.8567 19.4108V5.64684ZM1.85669 5.60913L6.85669 2.75199V16.4485L1.85669 19.3056V5.60913Z" />
</svg>
