<svg width="22" height="22" viewBox="0 0 22 22" fill="currentColor" xmlns="http://www.w3.org/2000/svg">
<path fill-rule="evenodd" clip-rule="evenodd" d="M6.15289 0.292893C6.34043 0.105357 6.59478 0 6.86 0H15.14C15.4052 0 15.6596 0.105357 15.8471 0.292893L21.7071 6.15289C21.8946 6.34043 22 6.59478 22 6.86V15.14C22 15.4052 21.8946 15.6596 21.7071 15.8471L15.8471 21.7071C15.6596 21.8946 15.4052 22 15.14 22H6.86C6.59478 22 6.34043 21.8946 6.15289 21.7071L0.292893 15.8471C0.105357 15.6596 0 15.4052 0 15.14V6.86C0 6.59478 0.105357 6.34043 0.292893 6.15289L6.15289 0.292893ZM7.27421 2L2 7.27421V14.7258L7.27421 20H14.7258L20 14.7258V7.27421L14.7258 2H7.27421ZM14.7071 7.29289C15.0976 7.68342 15.0976 8.31658 14.7071 8.70711L12.4142 11L14.7071 13.2929C15.0976 13.6834 15.0976 14.3166 14.7071 14.7071C14.3166 15.0976 13.6834 15.0976 13.2929 14.7071L11 12.4142L8.70711 14.7071C8.31658 15.0976 7.68342 15.0976 7.29289 14.7071C6.90237 14.3166 6.90237 13.6834 7.29289 13.2929L9.58579 11L7.29289 8.70711C6.90237 8.31658 6.90237 7.68342 7.29289 7.29289C7.68342 6.90237 8.31658 6.90237 8.70711 7.29289L11 9.58579L13.2929 7.29289C13.6834 6.90237 14.3166 6.90237 14.7071 7.29289Z" />
</svg>
