<svg width="21" height="23" viewBox="0 0 21 23" fill="currentColor" xmlns="http://www.w3.org/2000/svg">
<path fill-rule="evenodd" clip-rule="evenodd" d="M10.0303 0.5177C9.50449 0.5177 8.98795 0.655885 8.53242 0.918388L5.33654 2.7446C5.12645 2.78617 4.93048 2.89469 4.78292 3.06095L1.53413 4.9174L1.53027 4.91962C1.16027 5.13324 0.841177 5.42283 0.593316 5.76806C0.532977 5.82842 0.479432 5.89755 0.434669 5.97494C0.396111 6.04159 0.366105 6.11085 0.344311 6.18143C0.138604 6.5949 0.0307488 7.05112 0.0302734 7.51462V15.5167C0.030813 16.0428 0.169688 16.5595 0.432966 17.0149C0.696244 17.4704 1.07467 17.8486 1.53027 18.1117L1.53413 18.1139L8.53027 22.1117L8.53212 22.1127C8.84932 22.2956 9.19611 22.4181 9.55501 22.4757C9.69638 22.5522 9.85825 22.5957 10.0303 22.5957C10.2023 22.5957 10.3642 22.5522 10.5055 22.4757C10.8645 22.4181 11.2113 22.2956 11.5285 22.1127L11.5303 22.1117L18.5264 18.1139L18.5303 18.1117C18.9859 17.8486 19.3643 17.4704 19.6276 17.0149C19.8909 16.5595 20.0297 16.0428 20.0303 15.5167V7.51462C20.0298 7.05113 19.9219 6.59492 19.7162 6.18145C19.6945 6.11086 19.6644 6.0416 19.6259 5.97494C19.5811 5.89755 19.5276 5.82841 19.4672 5.76804C19.2194 5.42282 18.9003 5.13324 18.5303 4.91961L11.5303 0.919624L11.5282 0.91842C11.0726 0.655896 10.5561 0.5177 10.0303 0.5177ZM11.0303 20.0939L17.5303 16.3796L17.5319 16.3787C17.683 16.2911 17.8086 16.1653 17.896 16.014C17.9838 15.8622 18.0301 15.69 18.0303 15.5146V8.0532L11.0303 12.1025V20.0939ZM9.03027 12.1025L2.03027 8.0532V15.5151C2.03053 15.6903 2.07682 15.8623 2.1645 16.014C2.25196 16.1653 2.37753 16.2911 2.5287 16.3787L2.53027 16.3796L9.03027 20.0939V12.1025ZM10.5303 2.65168L16.9913 6.34369L14.5355 7.7643L7.59118 3.75975L9.52642 2.6539L9.53027 2.65167C9.68229 2.56391 9.85474 2.5177 10.0303 2.5177C10.2058 2.5177 10.3782 2.56392 10.5303 2.65168ZM10.0303 10.3704L12.5368 8.92045L5.58026 4.90884L3.06925 6.34369L10.0303 10.3704Z" />
</svg>
