<svg width="24" height="24" viewBox="0 0 24 24" fill="currentColor" xmlns="http://www.w3.org/2000/svg">
<path fill-rule="evenodd" clip-rule="evenodd" d="M12 2.51472C12.5523 2.51472 13 2.96243 13 3.51472V20.4853C13 21.0376 12.5523 21.4853 12 21.4853C11.4477 21.4853 11 21.0376 11 20.4853V3.51472C11 2.96243 11.4477 2.51472 12 2.51472Z" />
<path fill-rule="evenodd" clip-rule="evenodd" d="M2.51474 12C2.51474 11.4477 2.96245 11 3.51474 11L20.4853 11C21.0376 11 21.4853 11.4477 21.4853 12C21.4853 12.5523 21.0376 13 20.4853 13L3.51474 13C2.96245 13 2.51474 12.5523 2.51474 12Z" />
</svg>
