<svg width="17" height="20" viewBox="0 0 17 20" fill="currentColor" xmlns="http://www.w3.org/2000/svg">
<path d="M13.0893 0.244078C12.7638 -0.0813592 12.2362 -0.0813592 11.9107 0.244078C11.5853 0.569515 11.5853 1.09715 11.9107 1.42259L13.8215 3.33333H4.16667C3.0616 3.33333 2.00179 3.77232 1.22039 4.55372C0.438987 5.33512 0 6.39493 0 7.5V9.16667C0 9.6269 0.373096 10 0.833333 10C1.29357 10 1.66667 9.6269 1.66667 9.16667V7.5C1.66667 6.83696 1.93006 6.20107 2.3989 5.73223C2.86774 5.26339 3.50363 5 4.16667 5H13.8215L11.9107 6.91074C11.5853 7.23618 11.5853 7.76382 11.9107 8.08926C12.2362 8.41469 12.7638 8.41469 13.0893 8.08926L16.4226 4.75592C16.5751 4.60337 16.6562 4.4064 16.6657 4.20664C16.6663 4.19333 16.6667 4.18 16.6667 4.16667L13.0893 0.244078Z" />
<path d="M13.0893 0.244078L16.4226 3.57741C16.5834 3.73817 16.6647 3.94828 16.6666 4.15897L13.0893 0.244078Z" />
<path d="M3.91074 19.7559C4.23618 20.0814 4.76382 20.0814 5.08925 19.7559C5.41469 19.4305 5.41469 18.9028 5.08925 18.5774L3.17851 16.6667H12.8333C13.9384 16.6667 14.9982 16.2277 15.7796 15.4463C16.561 14.6649 17 13.6051 17 12.5V10.8333C17 10.3731 16.6269 10 16.1667 10C15.7064 10 15.3333 10.3731 15.3333 10.8333V12.5C15.3333 13.163 15.0699 13.7989 14.6011 14.2678C14.1323 14.7366 13.4964 15 12.8333 15H3.17851L5.08925 13.0893C5.41469 12.7638 5.41469 12.2362 5.08925 11.9107C4.76382 11.5853 4.23618 11.5853 3.91074 11.9107L0.577408 15.2441C0.42486 15.3966 0.343817 15.5936 0.334284 15.7934C0.333648 15.8067 0.33333 15.82 0.33333 15.8333L3.91074 19.7559Z" />
<path d="M3.91074 19.7559L0.578325 16.3749C0.417563 16.2142 0.336217 16.0041 0.334284 15.7934L3.91074 19.7559Z" />
</svg>
