<svg width="17" height="20" viewBox="0 0 17 20" fill="currentColor" xmlns="http://www.w3.org/2000/svg">
<path fill-rule="evenodd" clip-rule="evenodd" d="M7.89474 1.05263V3.17407C6.15254 3.28151 4.55367 3.91867 3.25721 4.92647L2.1691 3.83836C1.96356 3.63282 1.63032 3.63282 1.42478 3.83836C1.21924 4.0439 1.21924 4.37715 1.42478 4.58269L2.46646 5.62437C0.942555 7.14828 0 9.25354 0 11.5789C0 16.2298 3.77023 20 8.42105 20C13.0719 20 16.8421 16.2298 16.8421 11.5789C16.8421 9.28602 15.9257 7.20713 14.4392 5.68857L15.545 4.58269C15.7506 4.37715 15.7506 4.04391 15.545 3.83837C15.3395 3.63283 15.0062 3.63283 14.8007 3.83837L13.6564 4.98268C12.3474 3.94238 10.7217 3.28349 8.94737 3.17407V1.05263H10C10.2907 1.05263 10.5263 0.816992 10.5263 0.526316C10.5263 0.23564 10.2907 0 10 0H8.42105H6.84211C6.55143 0 6.31579 0.23564 6.31579 0.526316C6.31579 0.816992 6.55143 1.05263 6.84211 1.05263H7.89474ZM1.5311 11.5789C1.5311 7.77373 4.61584 4.689 8.42105 4.689C12.2263 4.689 15.311 7.77373 15.311 11.5789C15.311 15.3842 12.2263 18.4689 8.42105 18.4689C4.61584 18.4689 1.5311 15.3842 1.5311 11.5789ZM9.1866 6.98565C9.1866 6.56284 8.84385 6.2201 8.42105 6.2201C7.99825 6.2201 7.6555 6.56284 7.6555 6.98565V11.5789C7.6555 11.8689 7.81933 12.134 8.07869 12.2637L11.1409 13.7948C11.5191 13.9839 11.9789 13.8306 12.168 13.4524C12.3571 13.0742 12.2038 12.6144 11.8256 12.4253L9.1866 11.1058V6.98565Z" />
</svg>
