<svg width="23" height="23" viewBox="0 0 23 23" fill="currentColor" xmlns="http://www.w3.org/2000/svg">
<path fill-rule="evenodd" clip-rule="evenodd" d="M15.5578 3.02796C15.0748 2.97339 14.5837 2.9892 14.1001 3.07733C13.1002 3.25952 12.1795 3.74211 11.4608 4.46081C10.7421 5.1795 10.2595 6.10016 10.0773 7.10009C9.89513 8.10001 10.022 9.13172 10.441 10.0577C10.6126 10.4369 10.5314 10.8828 10.2371 11.1771L3.32708 18.0871C3.1168 18.2974 2.99866 18.5826 2.99866 18.88C2.99866 19.1774 3.1168 19.4626 3.32708 19.6729C3.53737 19.8832 3.82259 20.0013 4.11998 20.0013C4.41737 20.0013 4.70258 19.8832 4.91287 19.6729L11.8229 12.7629C12.1172 12.4686 12.563 12.3873 12.9423 12.5589C13.8682 12.978 14.8999 13.1048 15.8999 12.9226C16.8998 12.7404 17.8205 12.2578 18.5391 11.5392C19.2578 10.8205 19.7404 9.8998 19.9226 8.89987C20.0108 8.41622 20.0266 7.92514 19.972 7.44218L17.4 10.0142C17.0262 10.3806 16.5235 10.5858 16 10.5858C15.4765 10.5858 14.9738 10.3806 14.6 10.0141L14.5928 10.0071L12.9858 8.40002C12.6193 8.02616 12.4141 7.52349 12.4141 6.99998C12.4141 6.47647 12.6194 5.97384 12.9858 5.59998L12.9928 5.59284L15.5578 3.02796ZM13.7416 1.10972C15.1415 0.854655 16.5859 1.03228 17.8822 1.61892C18.1813 1.75426 18.3949 2.02777 18.4538 2.35073C18.5126 2.67369 18.4092 3.00496 18.1771 3.23709L14.4142 6.99998L16 8.58577L19.7629 4.82287C19.995 4.59075 20.3263 4.48733 20.6492 4.54618C20.9722 4.60502 21.2457 4.81863 21.381 5.11771C21.9677 6.41409 22.1453 7.85848 21.8902 9.25838C21.6352 10.6583 20.9595 11.9472 19.9534 12.9534C18.9472 13.9595 17.6583 14.6352 16.2584 14.8902C15.0909 15.103 13.8925 15.0147 12.7748 14.6393L6.32708 21.0871C5.74172 21.6724 4.9478 22.0013 4.11998 22.0013C3.29215 22.0013 2.49823 21.6724 1.91287 21.0871C1.32751 20.5017 0.998657 19.7078 0.998657 18.88C0.998657 18.0522 1.32751 17.2582 1.91287 16.6729L8.36063 10.2251C7.98522 9.10743 7.897 7.90903 8.10972 6.74158C8.36478 5.34169 9.04042 4.05277 10.0466 3.0466C11.0528 2.04042 12.3417 1.36478 13.7416 1.10972Z" />
</svg>
