<svg width="20" height="20" viewBox="0 0 20 20" fill="currentColor" xmlns="http://www.w3.org/2000/svg">
<path fill-rule="evenodd" clip-rule="evenodd" d="M2 17C2 17.2652 2.10536 17.5196 2.29289 17.7071C2.48043 17.8946 2.73478 18 3 18L17 18C17.2652 18 17.5196 17.8946 17.7071 17.7071C17.8946 17.5196 18 17.2652 18 17L18 13C18 12.4477 18.4477 12 19 12C19.5523 12 20 12.4477 20 13L20 17C20 17.7956 19.6839 18.5587 19.1213 19.1213C18.5587 19.6839 17.7957 20 17 20L3 20C2.20435 20 1.44129 19.6839 0.87868 19.1213C0.31607 18.5587 -9.63552e-08 17.7956 -1.31134e-07 17L-3.0598e-07 13C-3.30121e-07 12.4477 0.447715 12 1 12C1.55228 12 2 12.4477 2 13L2 17Z" />
<path fill-rule="evenodd" clip-rule="evenodd" d="M4.29289 6.70711C3.90237 6.31658 3.90237 5.68342 4.29289 5.29289L9.29289 0.292892C9.68342 -0.0976319 10.3166 -0.0976319 10.7071 0.292892L15.7071 5.29289C16.0976 5.68342 16.0976 6.31658 15.7071 6.70711C15.3166 7.09763 14.6834 7.09763 14.2929 6.70711L10 2.41421L5.70711 6.70711C5.31658 7.09763 4.68342 7.09763 4.29289 6.70711Z" />
<path fill-rule="evenodd" clip-rule="evenodd" d="M10 14C9.44771 14 9 13.5523 9 13L9 1C9 0.447715 9.44771 -4.12973e-07 10 -4.37114e-07C10.5523 -4.61255e-07 11 0.447715 11 1L11 13C11 13.5523 10.5523 14 10 14Z" />
</svg>
