<svg width="22" height="22" viewBox="0 0 22 22" fill="currentColor" xmlns="http://www.w3.org/2000/svg">
<path fill-rule="evenodd" clip-rule="evenodd" d="M11 2C6.02944 2 2 6.02944 2 11C2 15.9706 6.02944 20 11 20C15.9706 20 20 15.9706 20 11C20 6.02944 15.9706 2 11 2ZM0 11C0 4.92487 4.92487 0 11 0C17.0751 0 22 4.92487 22 11C22 17.0751 17.0751 22 11 22C4.92487 22 0 17.0751 0 11Z" />
<path fill-rule="evenodd" clip-rule="evenodd" d="M6.02513 12.5251C6.6815 11.8687 7.57174 11.5 8.5 11.5H13.5C14.4283 11.5 15.3185 11.8687 15.9749 12.5251C16.6313 13.1815 17 14.0717 17 15V16.25C17 16.8023 16.5523 17.25 16 17.25C15.4477 17.25 15 16.8023 15 16.25V15C15 14.6022 14.842 14.2206 14.5607 13.9393C14.2794 13.658 13.8978 13.5 13.5 13.5H8.5C8.10218 13.5 7.72064 13.658 7.43934 13.9393C7.15803 14.2206 7 14.6022 7 15V16.25C7 16.8023 6.55228 17.25 6 17.25C5.44772 17.25 5 16.8023 5 16.25V15C5 14.0717 5.36875 13.1815 6.02513 12.5251Z" />
<path fill-rule="evenodd" clip-rule="evenodd" d="M11 6C10.1716 6 9.5 6.67157 9.5 7.5C9.5 8.32843 10.1716 9 11 9C11.8284 9 12.5 8.32843 12.5 7.5C12.5 6.67157 11.8284 6 11 6ZM7.5 7.5C7.5 5.567 9.067 4 11 4C12.933 4 14.5 5.567 14.5 7.5C14.5 9.433 12.933 11 11 11C9.067 11 7.5 9.433 7.5 7.5Z" />
</svg>
